<?xml version="1.0" encoding="UTF-8"?>
<svg xmlns="http://www.w3.org/2000/svg" version="1.1" viewBox="0 0 216 108">
  <defs>
    <style>
      .cls-1 {
        fill: #1a1f4a;
      }

      .cls-2 {
        fill: #21a7e0;
      }
    </style>
  </defs>
  <!-- Generator: Adobe Illustrator 28.7.1, SVG Export Plug-In . SVG Version: 1.2.0 Build 142)  -->
  <g>
    <g id="Layer_1">
      <g id="Layer_1-2" data-name="Layer_1">
        <g>
          <path class="cls-1" d="M41.2,86.4c-1.1-1.2-2.9-1.3-4.1-.3-2.3,1.9-6.5,4.5-12.3,4.5-10.4,0-18.3-8-18.3-18.5s7.8-18.5,18.2-18.5,9,2.1,11.2,3.7c1.3.9,3,.7,4-.5l1.3-1.4-.5-.5c-4.3-3.9-10-6.1-16-6.1-13,0-23.8,11.4-23.2,24.4.6,12.5,10.6,22.1,23.2,22.1s12.8-2.6,17.2-7.3l.4-.5-1.1-1.2h0Z"/>
          <path class="cls-1" d="M146.1,94.4v-40.3h8.1c1.7,0,3-1.3,3-3v-1.4h-11.1v-8.1l-4.8.6v7.5h-6.6v4.4h6.6v37.3c0,1.7,1.3,3,3,3,0,0,1.8,0,1.8,0Z"/>
          <path class="cls-1" d="M48.3,91.4c0,1.7,1.3,3,3,3h1.8v-44l-4.8-.6v41.7h0Z"/>
          <path class="cls-1" d="M85.4,53.9v-5s-11.5-1-17.7,8.8v-7.3l-4.7-.6h0v41.7c0,1.7,1.3,3,3,3h1.8v-23.6c0-9.8,7.2-17,17.1-17h.6Z"/>
          <path class="cls-1" d="M106.2,90.6c-10,0-17.3-7.8-17.3-18.5s7.4-18.5,17.2-18.5,17.1,8.1,17.1,18.5-7.5,18.5-17,18.5M123.2,57.8c-3.7-5.5-10.2-9-17.2-9-12.6,0-22.1,10-22.1,23.3s9.5,23.3,22.1,23.3,13.6-3.6,17.2-9.3v5.3c0,1.7,1.3,3,3,3h1.8v-44.7l-4.8.6v7.4h0Z"/>
          <path class="cls-1" d="M178.3,90.6c-10,0-17.3-7.8-17.3-18.5s7.4-18.5,17.2-18.5,17.1,8.1,17.1,18.5-7.5,18.5-17,18.5M195.3,57.8c-3.7-5.5-10.2-9-17.2-9-12.6,0-22.1,10-22.1,23.3s9.5,23.3,22.1,23.3,13.6-3.6,17.2-9.3v5.3c0,1.7,1.3,3,3,3h1.8v-44.7h-.2l-4.7.6v7.5h0Z"/>
          <path class="cls-2" d="M41.7,36.2c13.4-3.1,26.7-5.5,41-9,13.5-3.2,27.1-7.2,39.1-14.4h.4v.3c-19.5,14.3-45.7,22.1-69.7,23.4-3.5.2-7.1.3-10.6,0-.3,0-.3-.5,0-.5"/>
          <path class="cls-2" d="M128.1,23.8c1.7-1,6.4-3.6,8.1-4.5,1.7-1.1,6-3.8,7.8-5,0,0,.1-.2,0-.3,0-.1-.2-.1-.3,0-1.8,1-6.3,3.4-8.1,4.4-1.7.8-6.5,3.1-8.3,3.9-9.5,4.5-30.7,10.7-46.6,13.7-10,1.9-19.8,3.9-30,5.7h0v.2h0c6.4,1.2,47.3,6.6,91.1-10.4s.2-.2.1-.3c0-.1-.2-.2-.3-.1-18.1,5.1-36.8,7.5-55.5,8,4.5-1.1,8.9-2.4,13.3-3.8,9.7-3,19.4-7,28.5-11.7l.3.2Z"/>
        </g>
      </g>
      <g>
        <path class="cls-1" d="M202.5,54.4c0-2.5,2.1-4.6,4.6-4.6s4.6,2.1,4.6,4.6-2.1,4.6-4.6,4.6-4.6-2.1-4.6-4.6ZM210.9,54.4c0-2.1-1.7-3.8-3.8-3.8s-3.8,1.7-3.8,3.8,1.7,3.8,3.8,3.8,3.8-1.7,3.8-3.8Z"/>
        <path class="cls-1" d="M205.2,51.7h2.1c1.5,0,2.3,1,2.3,1.9s-.4,1.3-1,1.7l1.1,1.5h-1.1l-1-1.3h-1.5v1.1h-1v-5ZM207.3,55c.8,0,1.3-.6,1.3-1.1s-.6-1.1-1.1-1.1h-1.3v2.3h1.3-.2Z"/>
      </g>
    </g>
  </g>
</svg>